<svg width="31" height="30" viewBox="0 0 31 30" fill="none" xmlns="http://www.w3.org/2000/svg">
<rect x="1.274" y="0.774121" width="6.68798" height="6.68798" stroke="#331B3B" stroke-width="0.948388"/>
<rect x="1.274" y="15.2843" width="6.68798" height="6.68798" stroke="#331B3B" stroke-width="0.948388"/>
<rect x="15.7828" y="0.774121" width="6.68798" height="6.68798" stroke="#331B3B" stroke-width="0.948388"/>
<rect x="15.7828" y="15.2843" width="6.68798" height="6.68798" stroke="#331B3B" stroke-width="0.948388"/>
<rect x="1.274" y="8.02803" width="6.68798" height="6.68798" stroke="#331B3B" stroke-width="0.948388"/>
<rect x="1.274" y="22.5382" width="6.68798" height="6.68798" stroke="#331B3B" stroke-width="0.948388"/>
<rect x="15.7828" y="8.02803" width="6.68798" height="6.68798" stroke="#331B3B" stroke-width="0.948388"/>
<rect x="15.7828" y="22.5382" width="6.68798" height="6.68798" stroke="#331B3B" stroke-width="0.948388"/>
<rect x="8.52888" y="0.774121" width="6.68798" height="6.68798" stroke="#331B3B" stroke-width="0.948388"/>
<rect x="8.52888" y="15.2819" width="6.68798" height="6.68798" stroke="#331B3B" stroke-width="0.948388"/>
<rect x="23.0382" y="0.774121" width="6.68798" height="6.68798" stroke="#331B3B" stroke-width="0.948388"/>
<rect x="23.0382" y="15.2843" width="6.68798" height="6.68798" stroke="#331B3B" stroke-width="0.948388"/>
<rect x="8.52888" y="8.02803" width="6.68798" height="6.68798" stroke="#331B3B" stroke-width="0.948388"/>
<rect x="8.52888" y="22.5382" width="6.68798" height="6.68798" stroke="#331B3B" stroke-width="0.948388"/>
<rect x="23.0382" y="8.02803" width="6.68798" height="6.68798" stroke="#331B3B" stroke-width="0.948388"/>
<rect x="23.0382" y="22.5382" width="6.68798" height="6.68798" stroke="#331B3B" stroke-width="0.948388"/>
</svg>
