<svg width="64" height="66" viewBox="0 0 64 66" fill="none" xmlns="http://www.w3.org/2000/svg">
<path d="M49.7347 43.3674C46.8086 48.3349 41.7551 52.2964 36.1723 54.2689C30.5909 56.2409 24.5957 56.1894 19.7238 53.3196C14.8519 50.4498 11.9004 45.2311 10.9194 39.3935C9.93806 33.5544 10.953 27.2139 13.8791 22.2465C16.8052 17.279 21.8587 13.3175 27.4415 11.345C33.0229 9.37298 39.0181 9.42444 43.89 12.2943C48.7619 15.1641 51.7134 20.3827 52.6945 26.2204C53.6758 32.0595 52.6608 38.4 49.7347 43.3674Z" stroke="#331B3B" stroke-opacity="0.64" stroke-width="2"/>
<path d="M42.3256 27.771L44 24.5282L41.2093 25.6091C34.5116 21.2854 32.093 26.69 31.7209 29.9328C26.8093 29.9328 23.3488 26.69 22.2326 25.0686C18.6605 31.5542 23.907 36.9589 27.814 39.1208C27.2558 40.2017 20 41.2826 20 41.2826C38.4186 47.7682 42.3256 34.2566 42.3256 27.771Z" stroke="#331B3B" stroke-width="2.3" stroke-linecap="round" stroke-linejoin="round"/>
</svg>
